<svg width="24.000000" height="24.000000" viewBox="0 0 24 24" fill="none" xmlns="http://www.w3.org/2000/svg" xmlns:xlink="http://www.w3.org/1999/xlink">
	<desc>
			Created with Pixso.
	</desc>
	<defs/>
	<path d="M21.33 0L2.66 0C1.18 0 0 1.19 0 2.66L0 21.33C0 22.8 1.18 24 2.66 24L21.33 24C22.8 24 24 22.8 24 21.33L24 2.66C24 1.19 22.81 0 21.33 0ZM21.33 21.33L2.66 21.33L2.66 5.33L21.33 5.33L21.33 21.33ZM18.66 12L5.33 12L5.33 9.33L18.66 9.33L18.66 12ZM13.33 17.33L5.33 17.33L5.33 14.66L13.33 14.66L13.33 17.33Z" fill="#F8F200" fill-opacity="1.000000" fill-rule="nonzero"/>
</svg>
